<?xml version="1.0" encoding="utf-8"?>
<svg width="24" height="24" viewBox="0 0 24 24" fill="none" xmlns="http://www.w3.org/2000/svg">
    <g>
        <path d="M0 3L2 0" fill="none" stroke-width="2" stroke="#818CF7" stroke-linecap="round" stroke-linejoin="round" transform="translate(10.5 13.5)" />
        <path d="M3.30589 8.3C3.75622 8.75189 4.36793 9.00589 5.00589 9.00589C5.64386 9.00589 6.25557 8.75189 6.70589 8.3C6.70589 8.3 9.00589 6 9.00589 6L3.00589 0C3.00589 0 0.705893 2.3 0.705893 2.3C0.254002 2.75032 0 3.36204 0 4C0 4.63796 0.254002 5.24968 0.705893 5.7C0.705893 5.7 3.30589 8.3 3.30589 8.3Z" fill="none" stroke-width="2" stroke="#818CF7" stroke-linecap="round" stroke-linejoin="round" transform="translate(2.994 12)" />
        <path d="M0 3L3 0" fill="none" stroke-width="2" stroke="#818CF7" stroke-linecap="round" stroke-linejoin="round" transform="translate(2 19)" />
        <path d="M0 2.5L2.5 0" fill="none" stroke-width="2" stroke="#818CF7" stroke-linecap="round" stroke-linejoin="round" transform="translate(7.5 11)" />
        <path d="M4 0L0 4L6 4L2 8" fill="none" stroke-width="2" stroke="#818CF7" stroke-linecap="round" stroke-linejoin="round" transform="translate(14 3)" />
    </g>
</svg>